<svg width="138" height="40" viewBox="0 0 138 40" fill="none" xmlns="http://www.w3.org/2000/svg">
<path d="M18.8584 11.1419C18.9523 11.2361 19 11.3527 19 11.4905V28.5348C19 28.6725 18.9523 28.785 18.8584 28.8707C18.7645 28.9564 18.6506 29 18.5182 29H15.7182C15.5858 29 15.4735 28.9578 15.378 28.8707C15.2841 28.785 15.2364 28.6725 15.2364 28.5348V18.3079C15.2364 18.1533 15.1979 18.076 15.1241 18.076C15.0671 18.076 14.9824 18.1365 14.8701 18.2573C14.5684 18.6705 14.0727 19.3156 13.3846 20.1939C12.6966 21.0723 12.1917 21.7089 11.8715 22.1052C11.6822 22.3287 11.5267 22.4763 11.4051 22.5437C11.282 22.6126 11.0803 22.6477 10.7971 22.6477H10.3168C9.97664 22.6477 9.74574 22.6224 9.62414 22.5704C9.501 22.5184 9.364 22.4074 9.21469 22.2345L6.13147 18.2826C6.05605 18.128 5.97139 18.0507 5.87749 18.0507C5.80206 18.0507 5.76358 18.128 5.76358 18.2826V21.4855C5.76358 21.6232 5.71586 21.7356 5.62197 21.8214C5.52807 21.9071 5.41416 21.9507 5.28178 21.9507H2.50951C2.37713 21.9507 2.26014 21.9029 2.15547 21.8087C2.05234 21.7146 2 21.6063 2 21.4855V11.4905C2 11.3527 2.05234 11.2361 2.15547 11.1419C2.2586 11.0478 2.37713 11 2.50951 11H5.33874C5.39569 11 5.4665 11.0309 5.55116 11.0899C5.63582 11.1504 5.69739 11.215 5.73434 11.2839L10.0336 17.7655C10.0521 17.8006 10.1044 17.8512 10.1891 17.92C10.2737 17.9889 10.3815 18.024 10.5139 18.024H10.5416C10.6739 18.024 10.7771 17.9819 10.8525 17.8948C10.9279 17.809 10.9756 17.7486 10.9941 17.7135L15.2657 11.3092C15.3226 11.2235 15.3796 11.1504 15.435 11.0899C15.4919 11.0295 15.5674 11 15.6613 11H15.689H18.5182C18.6506 11 18.7629 11.0478 18.8584 11.1419Z" fill="#264653"/>
<path d="M24.6027 27.7311C23.1832 26.8852 22.0606 25.7332 21.2364 24.2763C20.4121 22.8195 20 21.2274 20 19.5C20 17.7726 20.4121 16.1805 21.2364 14.7237C22.0606 13.2668 23.1832 12.1162 24.6027 11.2689C26.0222 10.423 27.5735 10 29.2567 10C29.648 10 30.0296 10.0256 30.4043 10.0783C30.5569 10.0954 30.6762 10.1652 30.7609 10.2877C30.8455 10.4101 30.8719 10.5497 30.8372 10.7063L30.4292 12.9834C30.3779 13.2626 30.2086 13.4021 29.9186 13.4021L29.2553 13.3765C28.1841 13.3765 27.1906 13.6513 26.272 14.201C25.3534 14.7507 24.6277 15.4969 24.092 16.4382C23.5564 17.3796 23.2886 18.4006 23.2886 19.5C23.2886 20.5994 23.5564 21.619 24.092 22.5618C24.6277 23.5045 25.3548 24.2493 26.272 24.799C27.1892 25.3487 28.1841 25.6235 29.2553 25.6235C30.4958 25.6235 31.5837 25.2618 32.519 24.537C33.4542 23.8135 34.1425 22.8494 34.5837 21.6447H31.2937C31.1577 21.6447 31.0384 21.592 30.9371 21.488C30.8358 21.384 30.7845 21.2616 30.7845 21.122V19.2123C30.7845 19.0728 30.8358 18.9503 30.9371 18.8463C31.0398 18.7424 31.1577 18.6897 31.2937 18.6897H36.7248C37.1327 18.6897 37.4477 18.7595 37.6684 18.899C37.889 19.0386 38 19.2394 38 19.5014C38 21.2459 37.6253 22.8423 36.8774 24.2906C36.1295 25.7389 35.0874 26.8852 33.7539 27.7311C32.4191 28.577 30.9191 29 29.2539 29C27.5722 29 26.0208 28.577 24.6027 27.7311Z" fill="#264653"/>
<path d="M48.0691 15L51.005 20.6072L53.9309 15H55V25H53.8283V17.7725L51.005 23.1748L48.1717 17.7725V25H47V15H48.0691Z" fill="#264653"/>
<path d="M63 15V16.2943H59.2008V19.351H62.9966V20.6453H59.2008V23.702H62.9966V25H58V15.0037H63V15Z" fill="#264653"/>
<path d="M64 15H65.2519L69.624 22.1397V15H71V25H69.8023L65.3721 17.7725V25H64V15Z" fill="#264653"/>
<path d="M75.6515 16.2943V25H74.3448V16.2943H72V15H78V16.2943H75.6515Z" fill="#264653"/>
<path d="M87.5357 16.4643C88.5107 17.4393 89 18.6179 89 20C89 21.3821 88.5107 22.5571 87.5357 23.5357C86.5607 24.5143 85.3821 25 84 25C82.6179 25 81.4429 24.5107 80.4643 23.5357C79.4857 22.5607 79 21.3821 79 20C79 18.6179 79.4893 17.4429 80.4643 16.4643C81.4393 15.4857 82.6179 15 84 15C85.3821 15 86.5571 15.4857 87.5357 16.4643ZM84 16.275C82.9714 16.275 82.0929 16.6393 81.3679 17.3643C80.6429 18.0893 80.2786 18.9679 80.2786 19.9964C80.2786 21.025 80.6429 21.9036 81.3714 22.6321C82.1 23.3607 82.975 23.725 84.0036 23.725C85.0321 23.725 85.9107 23.3607 86.6357 22.6321C87.3607 21.9036 87.725 21.025 87.725 19.9964C87.725 18.9679 87.3607 18.0893 86.6357 17.3643C85.9071 16.6357 85.0286 16.275 84 16.275Z" fill="#264653"/>
<path d="M92.4574 21.7971H91.2849V24.9963H90V15H92.8167C93.6152 15.1097 94.2904 15.4388 94.8385 15.9945C95.4955 16.66 95.8258 17.4607 95.8258 18.3931C95.8258 19.3364 95.4955 20.1371 94.8385 20.8062C94.3848 21.2633 94.0363 21.5229 93.7967 21.5814L96 25H94.4428L92.4574 21.7971ZM91.2849 16.298V20.4954H92.4574C93.0272 20.4954 93.5172 20.2907 93.9238 19.8812C94.3303 19.4717 94.5336 18.9744 94.5336 18.3894C94.5336 17.8117 94.3303 17.3181 93.9238 16.9086C93.5172 16.4991 93.0272 16.298 92.4574 16.298H91.2849Z" fill="#264653"/>
<path d="M109.799 23.5576C108.871 24.5204 107.808 25 106.609 25C105.335 25 104.245 24.5132 103.347 23.5397C102.449 22.5662 102 21.3851 102 20.0036C102 18.6256 102.449 17.4481 103.347 16.4674C104.245 15.4903 105.335 15 106.609 15C107.801 15 108.934 15.5297 110 16.5855L109.125 17.4481C108.319 16.675 107.481 16.2849 106.609 16.2849C105.665 16.2849 104.856 16.6464 104.186 17.3729C103.515 18.0995 103.179 18.9764 103.179 20.0036C103.179 21.0344 103.515 21.9148 104.186 22.6414C104.856 23.3679 105.665 23.7294 106.609 23.7294C107.421 23.7294 108.095 23.4968 108.63 23.0315V20.0787H109.799V23.5576Z" fill="#264653"/>
<path d="M120.536 16.4643C121.511 17.4393 122 18.6179 122 20C122 21.3821 121.511 22.5571 120.536 23.5357C119.561 24.5143 118.382 25 117 25C115.618 25 114.443 24.5107 113.464 23.5357C112.486 22.5607 112 21.3821 112 20C112 18.6179 112.489 17.4429 113.464 16.4643C114.439 15.4857 115.618 15 117 15C118.382 15 119.557 15.4857 120.536 16.4643ZM117 16.275C115.971 16.275 115.093 16.6393 114.368 17.3643C113.643 18.0893 113.279 18.9679 113.279 19.9964C113.279 21.025 113.643 21.9036 114.371 22.6321C115.1 23.3607 115.975 23.725 117.004 23.725C118.032 23.725 118.911 23.3607 119.636 22.6321C120.361 21.9036 120.725 21.025 120.725 19.9964C120.725 18.9679 120.361 18.0893 119.636 17.3643C118.907 16.6357 118.029 16.275 117 16.275Z" fill="#264653"/>
<path d="M127.35 15L131 25H129.621L128.33 21.4631H125.67L124.387 25H123L126.65 15H127.35ZM127.856 20.1719L126.998 17.8274L126.147 20.1719H127.856Z" fill="#264653"/>
<path d="M132 25V15H133.329V23.7015H137V25H132Z" fill="#264653"/>
</svg>
